<svg xmlns="http://www.w3.org/2000/svg" width="31" height="31" viewBox="0 0 31 31">
    <g fill="#CACACA" fill-rule="evenodd">
        <path d="M20.993.056c-4.652 0-8.548 2.69-9.646 6.322a6.665 6.665 0 0 1 2.543.52h12.28a.513.513 0 0 1 0 1.026H15.516a6.468 6.468 0 0 1 1.522 2.026h9.134a.513.513 0 0 1 0 1.027h-8.73c.255.809.398 1.696.398 2.653 0 .891-.117 1.802-.325 2.69.356.111.72.206 1.094.284l-.212 2.468c-.061.709.802 1.1 1.293.586l2.77-2.903c4.808-.599 8.5-4.08 8.5-8.3 0-4.638-4.461-8.4-9.966-8.4zM21.852 27.24a7.932 7.932 0 0 0-5.006-4.971.568.568 0 0 0-.693.295l-3.249 6.862.64-3.55a1.363 1.363 0 0 0-.262-1.073l-1.696-2.198a.425.425 0 0 0-.674 0l-1.696 2.198c-.235.305-.33.695-.262 1.074l.639 3.546-3.248-6.86a.566.566 0 0 0-.693-.294A7.933 7.933 0 0 0 .646 27.24l-.563 1.661a1.561 1.561 0 0 0 1.479 2.068h19.374a1.561 1.561 0 0 0 1.48-2.068l-.564-1.66z"/>
        <path d="M11.249 21.4c2.79 0 5.052-4.046 5.052-7.77 0-3.724-2.262-5.716-5.052-5.716-2.79 0-5.051 1.992-5.051 5.716s2.262 7.77 5.05 7.77z"/>
    </g>
</svg>
